<svg width="34" height="46" viewBox="0 0 34 46" fill="none" xmlns="http://www.w3.org/2000/svg">
<path d="M32.6686 29.9969V2.73571C32.6686 1.40838 31.9513 0.999969 30.9264 0.999969H25.1871C23.9572 0.999969 23.4448 1.40838 23.4448 2.73571V40.922C23.4448 41.8409 21.6128 45.1791 16.4756 44.802C6.73933 44.0873 1 37.3433 1 31.937V2.73571C1 1.61259 1.51247 0.999969 2.74229 0.999969H8.3791C9.60898 0.999969 10.1214 1.61259 10.1214 2.73571V29.6907C10.1214 32.7455 13.1535 36.0211 16.4756 36.0211H26.725C30.0046 36.0211 32.6686 32.2432 32.6686 29.9969Z" stroke="url(#paint0_linear_1063_7)" stroke-width="1.5"/>
<defs>
<linearGradient id="paint0_linear_1063_7" x1="5.90864" y1="38.9143" x2="34.43" y2="15.1613" gradientUnits="userSpaceOnUse">
<stop stop-color="#A950C4"/>
<stop offset="1" stop-color="#82269E"/>
</linearGradient>
</defs>
</svg>
