<svg width="34" height="46" viewBox="0 0 34 46" fill="none" xmlns="http://www.w3.org/2000/svg">
<path d="M1 15.8346V43.0958C1 44.4232 1.71739 44.8316 2.74226 44.8316H8.48156C9.71141 44.8316 10.2238 44.4232 10.2239 43.0958V4.90954C10.2239 3.99061 12.0558 0.652456 17.193 1.02957C26.9293 1.74428 32.6686 8.48823 32.6686 13.8946V43.0958C32.6686 44.219 32.1562 44.8316 30.9263 44.8316H25.2895C24.0597 44.8316 23.5473 44.219 23.5473 43.0958V16.1408C23.5473 13.086 20.5151 9.81046 17.193 9.81046H6.94365C3.66403 9.81046 0.999993 13.5884 1 15.8346Z" stroke="url(#paint0_linear_1063_5)" stroke-width="1.5"/>
<defs>
<linearGradient id="paint0_linear_1063_5" x1="27.76" y1="6.91726" x2="-0.761337" y2="30.6702" gradientUnits="userSpaceOnUse">
<stop stop-color="#A950C4"/>
<stop offset="1" stop-color="#82269E"/>
</linearGradient>
</defs>
</svg>
